<svg width="39" height="24" viewBox="0 0 39 24" fill="none" xmlns="http://www.w3.org/2000/svg">
<path d="M0.317445 1.86324C0.216803 1.76189 0.13697 1.64157 0.0825042 1.50914C0.028037 1.37672 1.89478e-06 1.23479 1.90731e-06 1.09146C1.91984e-06 0.948128 0.0280371 0.806198 0.0825043 0.673777C0.136971 0.541355 0.216803 0.421032 0.317445 0.319681C0.418086 0.21833 0.537565 0.137934 0.66906 0.0830841C0.800554 0.0282325 0.941489 -1.24427e-08 1.08382 0C1.22615 1.24428e-08 1.36708 0.0282326 1.49858 0.0830841C1.63007 0.137934 1.74955 0.21833 1.85019 0.319681L12.6823 11.2282C12.783 11.3295 12.8629 11.4498 12.9174 11.5823C12.9719 11.7147 13 11.8566 13 12C13 12.1434 12.9719 12.2853 12.9174 12.4177C12.8629 12.5502 12.783 12.6705 12.6823 12.7718L1.85019 23.6803C1.64693 23.885 1.37126 24 1.08382 24C0.79637 24 0.520698 23.885 0.317443 23.6803C0.114188 23.4756 -2.53066e-08 23.198 0 22.9085C2.53066e-08 22.6191 0.114188 22.3414 0.317443 22.1368L10.3845 12L0.317445 1.86324Z" fill="currentColor"/>
<path d="M13.3174 1.86324C13.2168 1.76189 13.137 1.64157 13.0825 1.50914C13.028 1.37672 13 1.23479 13 1.09146C13 0.948128 13.028 0.806198 13.0825 0.673777C13.137 0.541355 13.2168 0.421032 13.3174 0.319681C13.4181 0.21833 13.5376 0.137934 13.6691 0.0830841C13.8006 0.0282325 13.9415 -1.24427e-08 14.0838 0C14.2261 1.24428e-08 14.3671 0.0282326 14.4986 0.0830841C14.6301 0.137934 14.7495 0.21833 14.8502 0.319681L25.6823 11.2282C25.783 11.3295 25.8629 11.4498 25.9174 11.5823C25.9719 11.7147 26 11.8566 26 12C26 12.1434 25.9719 12.2853 25.9174 12.4177C25.8629 12.5502 25.783 12.6705 25.6823 12.7718L14.8502 23.6803C14.6469 23.885 14.3713 24 14.0838 24C13.7964 24 13.5207 23.885 13.3174 23.6803C13.1142 23.4756 13 23.198 13 22.9085C13 22.6191 13.1142 22.3414 13.3174 22.1368L23.3845 12L13.3174 1.86324Z" fill="currentColor"/>
<path d="M26.3174 1.86324C26.2168 1.76189 26.137 1.64157 26.0825 1.50914C26.028 1.37672 26 1.23479 26 1.09146C26 0.948128 26.028 0.806198 26.0825 0.673777C26.137 0.541355 26.2168 0.421032 26.3174 0.319681C26.4181 0.21833 26.5376 0.137934 26.6691 0.0830841C26.8006 0.0282325 26.9415 -1.24427e-08 27.0838 0C27.2261 1.24428e-08 27.3671 0.0282326 27.4986 0.0830841C27.6301 0.137934 27.7495 0.21833 27.8502 0.319681L38.6823 11.2282C38.783 11.3295 38.8629 11.4498 38.9174 11.5823C38.9719 11.7147 39 11.8566 39 12C39 12.1434 38.9719 12.2853 38.9174 12.4177C38.8629 12.5502 38.783 12.6705 38.6823 12.7718L27.8502 23.6803C27.6469 23.885 27.3713 24 27.0838 24C26.7964 24 26.5207 23.885 26.3174 23.6803C26.1142 23.4756 26 23.198 26 22.9085C26 22.6191 26.1142 22.3414 26.3174 22.1368L36.3845 12L26.3174 1.86324Z" fill="currentColor"/>
</svg>
