<svg width="12" height="7" viewBox="0 0 12 7" fill="none" xmlns="http://www.w3.org/2000/svg">
<path d="M11.0684 0.17093C11.1191 0.116738 11.1792 0.0737514 11.2454 0.0444236C11.3116 0.0150952 11.3826 -9.74387e-07 11.4543 -9.77519e-07C11.5259 -9.80652e-07 11.5969 0.0150952 11.6631 0.0444235C11.7293 0.0737514 11.7895 0.116738 11.8402 0.17093C11.8908 0.225121 11.931 0.289456 11.9585 0.360261C11.9859 0.431066 12 0.506954 12 0.583592C12 0.660231 11.9859 0.736119 11.9585 0.806923C11.931 0.877728 11.8908 0.942063 11.8402 0.996254L6.38589 6.82894C6.33523 6.88317 6.27508 6.92619 6.20887 6.95554C6.14265 6.98489 6.07168 7 6 7C5.92832 7 5.85735 6.98489 5.79113 6.95554C5.72492 6.92619 5.66476 6.88317 5.61411 6.82894L0.15984 0.996255C0.0574961 0.88681 -2.76558e-07 0.738371 -2.8047e-07 0.583592C-2.84383e-07 0.428814 0.0574961 0.280375 0.15984 0.17093C0.262185 0.0614853 0.400993 -4.94365e-07 0.54573 -5.00692e-07C0.690467 -5.07018e-07 0.829275 0.0614853 0.931619 0.17093L6 5.59168L11.0684 0.17093Z" fill="#656565"/>
</svg>
