<svg width="8" height="12" viewBox="0 0 8 12" fill="none" xmlns="http://www.w3.org/2000/svg">
<path d="M0.670931 0.93162C0.61674 0.880945 0.573753 0.820784 0.544425 0.754572C0.515097 0.688362 0.500001 0.617397 0.500001 0.545731C0.500001 0.474064 0.515097 0.403099 0.544425 0.336889C0.573753 0.270678 0.61674 0.210516 0.670931 0.159841C0.725123 0.109166 0.789458 0.0689672 0.860262 0.0415424C0.931067 0.0141167 1.00696 3.86034e-07 1.08359 3.92734e-07C1.16023 3.99434e-07 1.23612 0.0141167 1.30692 0.0415425C1.37773 0.0689673 1.44206 0.109166 1.49626 0.159841L7.32894 5.61411C7.38317 5.66477 7.42619 5.72492 7.45554 5.79113C7.48489 5.85735 7.5 5.92832 7.5 6C7.5 6.07168 7.48489 6.14265 7.45554 6.20887C7.42619 6.27508 7.38317 6.33524 7.32894 6.38589L1.49625 11.8402C1.38681 11.9425 1.23837 12 1.08359 12C0.928814 12 0.780375 11.9425 0.67093 11.8402C0.561485 11.7378 0.5 11.599 0.5 11.4543C0.5 11.3095 0.561485 11.1707 0.67093 11.0684L6.09168 6L0.670931 0.93162Z" fill="#73CD00"/>
</svg>
