<svg width="8" height="12" viewBox="0 0 8 12" fill="none" xmlns="http://www.w3.org/2000/svg">
<path d="M7.32907 11.0684C7.38326 11.1191 7.42625 11.1792 7.45558 11.2454C7.4849 11.3116 7.5 11.3826 7.5 11.4543C7.5 11.5259 7.4849 11.5969 7.45558 11.6631C7.42625 11.7293 7.38326 11.7895 7.32907 11.8402C7.27488 11.8908 7.21054 11.931 7.13974 11.9585C7.06893 11.9859 6.99305 12 6.91641 12C6.83977 12 6.76388 11.9859 6.69308 11.9585C6.62227 11.931 6.55794 11.8908 6.50375 11.8402L0.671065 6.38589C0.616834 6.33523 0.573813 6.27508 0.544461 6.20887C0.515108 6.14265 0.5 6.07168 0.5 6C0.5 5.92832 0.515108 5.85735 0.544461 5.79113C0.573813 5.72492 0.616834 5.66476 0.671065 5.61411L6.50375 0.159841C6.61319 0.0574964 6.76163 -2.85311e-09 6.91641 0C7.07119 2.8531e-09 7.21962 0.0574964 7.32907 0.159841C7.43851 0.262185 7.5 0.400994 7.5 0.54573C7.5 0.690467 7.43851 0.829275 7.32907 0.93162L1.90832 6L7.32907 11.0684Z" fill="#73CD00"/>
</svg>
