<svg width="14" height="15" viewBox="0 0 14 15" fill="none" xmlns="http://www.w3.org/2000/svg">
<path d="M14 1.9V13.1C14 13.4713 13.8525 13.8274 13.5899 14.0899C13.3274 14.3525 12.9713 14.5 12.6 14.5H1.4C1.0287 14.5 0.672601 14.3525 0.410051 14.0899C0.1475 13.8274 0 13.4713 0 13.1V1.9C0 1.5287 0.1475 1.1726 0.410051 0.910051C0.672601 0.6475 1.0287 0.5 1.4 0.5H12.6C12.9713 0.5 13.3274 0.6475 13.5899 0.910051C13.8525 1.1726 14 1.5287 14 1.9ZM12.32 2.18H1.68V12.82H12.32V2.18Z" fill="currentColor"/>
</svg>
