<svg width="14" height="15" viewBox="0 0 14 15" fill="none" xmlns="http://www.w3.org/2000/svg">
<path d="M10.804 4.69549C10.866 4.75739 10.9151 4.83091 10.9487 4.91183C10.9822 4.99274 10.9995 5.07948 10.9995 5.16707C10.9995 5.25467 10.9822 5.34141 10.9487 5.42232C10.9151 5.50324 10.866 5.57675 10.804 5.63866L6.13816 10.3045C6.07625 10.3665 6.00274 10.4156 5.92182 10.4492C5.8409 10.4827 5.75417 10.5 5.66657 10.5C5.57898 10.5 5.49224 10.4827 5.41132 10.4492C5.3304 10.4156 5.25689 10.3665 5.19499 10.3045L3.19534 8.30486C3.07026 8.17979 3 8.01015 3 7.83327C3 7.6564 3.07026 7.48676 3.19534 7.36169C3.32041 7.23662 3.49004 7.16635 3.66692 7.16635C3.8438 7.16635 4.01343 7.23662 4.13851 7.36169L5.66657 8.89059L9.86084 4.69549C9.92274 4.63352 9.99626 4.58435 10.0772 4.55081C10.1581 4.51727 10.2448 4.5 10.3324 4.5C10.42 4.5 10.5068 4.51727 10.5877 4.55081C10.6686 4.58435 10.7421 4.63352 10.804 4.69549Z" fill="#656565"/>
<path d="M14 1.9V13.1C14 13.4713 13.8525 13.8274 13.5899 14.0899C13.3274 14.3525 12.9713 14.5 12.6 14.5H1.4C1.0287 14.5 0.672601 14.3525 0.410051 14.0899C0.1475 13.8274 0 13.4713 0 13.1V1.9C0 1.5287 0.1475 1.1726 0.410051 0.910051C0.672601 0.6475 1.0287 0.5 1.4 0.5H12.6C12.9713 0.5 13.3274 0.6475 13.5899 0.910051C13.8525 1.1726 14 1.5287 14 1.9ZM12.32 2.18H1.68V12.82H12.32V2.18Z" fill="#656565"/>
</svg>
