<svg width="30" height="26" viewBox="0 0 30 26" fill="none" xmlns="http://www.w3.org/2000/svg">
<path d="M26.3042 3.3913H22.3872L20.4613 0.503044C20.3581 0.348388 20.2183 0.221569 20.0544 0.133823C19.8905 0.0460768 19.7075 0.000111637 19.5216 0H10.4781C10.2922 0.000111637 10.1092 0.0460768 9.94527 0.133823C9.78136 0.221569 9.64162 0.348388 9.53844 0.503044L7.61105 3.3913H3.6955C2.79607 3.3913 1.93348 3.7486 1.29749 4.38459C0.661496 5.02059 0.304199 5.88318 0.304199 6.78261V22.6087C0.304199 23.5081 0.661496 24.3707 1.29749 25.0067C1.93348 25.6427 2.79607 26 3.6955 26H26.3042C27.2036 26 28.0662 25.6427 28.7022 25.0067C29.3382 24.3707 29.6955 23.5081 29.6955 22.6087V6.78261C29.6955 5.88318 29.3382 5.02059 28.7022 4.38459C28.0662 3.7486 27.2036 3.3913 26.3042 3.3913ZM27.4346 22.6087C27.4346 22.9085 27.3155 23.196 27.1035 23.408C26.8915 23.62 26.604 23.7391 26.3042 23.7391H3.6955C3.39569 23.7391 3.10816 23.62 2.89617 23.408C2.68417 23.196 2.56507 22.9085 2.56507 22.6087V6.78261C2.56507 6.4828 2.68417 6.19527 2.89617 5.98327C3.10816 5.77127 3.39569 5.65217 3.6955 5.65217H8.21724C8.4034 5.65229 8.5867 5.60644 8.75088 5.51868C8.91505 5.43093 9.05501 5.30399 9.15833 5.14913L11.0829 2.26087H18.9154L20.8414 5.14913C20.9447 5.30399 21.0847 5.43093 21.2488 5.51868C21.413 5.60644 21.5963 5.65229 21.7825 5.65217H26.3042C26.604 5.65217 26.8915 5.77127 27.1035 5.98327C27.3155 6.19527 27.4346 6.4828 27.4346 6.78261V22.6087ZM14.9999 7.91304C13.7702 7.91304 12.5681 8.27769 11.5457 8.96086C10.5232 9.64404 9.72631 10.6151 9.25573 11.7511C8.78515 12.8872 8.66203 14.1373 8.90193 15.3434C9.14183 16.5494 9.73397 17.6573 10.6035 18.5268C11.473 19.3963 12.5808 19.9885 13.7869 20.2284C14.993 20.4683 16.2431 20.3451 17.3791 19.8746C18.5152 19.404 19.4862 18.6071 20.1694 17.5846C20.8526 16.5622 21.2172 15.3601 21.2172 14.1304C21.2154 12.4821 20.5597 10.9017 19.3941 9.73614C18.2286 8.57056 16.6482 7.91491 14.9999 7.91304ZM14.9999 18.087C14.2173 18.087 13.4524 17.8549 12.8017 17.4202C12.1511 16.9854 11.644 16.3675 11.3445 15.6445C11.045 14.9216 10.9667 14.126 11.1194 13.3586C11.272 12.5911 11.6488 11.8861 12.2022 11.3328C12.7555 10.7794 13.4605 10.4026 14.228 10.2499C14.9955 10.0973 15.791 10.1756 16.5139 10.4751C17.2369 10.7745 17.8548 11.2817 18.2896 11.9323C18.7243 12.583 18.9564 13.3479 18.9564 14.1304C18.9564 15.1798 18.5395 16.1861 17.7975 16.9281C17.0555 17.6701 16.0492 18.087 14.9999 18.087Z" fill="currentColor"/>
</svg>
