<svg width="18" height="19" viewBox="0 0 18 19" fill="none" xmlns="http://www.w3.org/2000/svg">
<path d="M9 0.5C7.21997 0.5 5.47991 1.02784 3.99987 2.01677C2.51983 3.00571 1.36628 4.41131 0.685088 6.05585C0.00389957 7.70038 -0.17433 9.50998 0.172936 11.2558C0.520203 13.0016 1.37737 14.6053 2.63604 15.864C3.89471 17.1226 5.49836 17.9798 7.24419 18.3271C8.99002 18.6743 10.7996 18.4961 12.4442 17.8149C14.0887 17.1337 15.4943 15.9802 16.4832 14.5001C17.4722 13.0201 18 11.28 18 9.5C17.9974 7.11386 17.0483 4.82622 15.361 3.13896C13.6738 1.45171 11.3861 0.502647 9 0.5ZM9 16.5C7.61553 16.5 6.26216 16.0895 5.11101 15.3203C3.95987 14.5511 3.06266 13.4579 2.53285 12.1788C2.00303 10.8997 1.86441 9.49223 2.13451 8.13437C2.4046 6.7765 3.07129 5.52922 4.05026 4.55025C5.02922 3.57128 6.2765 2.9046 7.63437 2.6345C8.99224 2.36441 10.3997 2.50303 11.6788 3.03284C12.9579 3.56266 14.0511 4.45986 14.8203 5.61101C15.5895 6.76215 16 8.11553 16 9.5C15.998 11.3559 15.2599 13.1352 13.9476 14.4476C12.6352 15.7599 10.8559 16.498 9 16.5ZM14.6667 9.5C14.6667 9.76521 14.5613 10.0196 14.3738 10.2071C14.1862 10.3946 13.9319 10.5 13.6667 10.5H9C8.73479 10.5 8.48043 10.3946 8.29289 10.2071C8.10536 10.0196 8 9.76521 8 9.5V4.83333C8 4.56812 8.10536 4.31376 8.29289 4.12623C8.48043 3.93869 8.73479 3.83333 9 3.83333C9.26522 3.83333 9.51957 3.93869 9.70711 4.12623C9.89464 4.31376 10 4.56812 10 4.83333V8.5H13.6667C13.9319 8.5 14.1862 8.60535 14.3738 8.79289C14.5613 8.98043 14.6667 9.23478 14.6667 9.5Z" fill="currentColor"/>
</svg>
