<svg width="28" height="14" viewBox="0 0 28 14" fill="none" xmlns="http://www.w3.org/2000/svg">
<path d="M26.4999 10.875C26.3857 10.9401 26.2598 10.9821 26.1293 10.9985C25.9989 11.0149 25.8665 11.0054 25.7397 10.9706C25.6129 10.9358 25.4942 10.8763 25.3904 10.7955C25.2867 10.7148 25.1998 10.6143 25.1349 10.5L22.7599 6.35C21.3792 7.2836 19.856 7.98691 18.2499 8.4325L18.9837 12.835C19.0053 12.9646 19.0012 13.0972 18.9716 13.2252C18.942 13.3532 18.8874 13.4742 18.811 13.5811C18.7346 13.688 18.6379 13.7788 18.5264 13.8483C18.4149 13.9179 18.2908 13.9647 18.1612 13.9863C18.1079 13.995 18.054 13.9996 17.9999 14C17.7634 13.9996 17.5346 13.9154 17.3542 13.7623C17.1739 13.6092 17.0537 13.3971 17.0149 13.1638L16.2937 8.84125C14.7727 9.05292 13.2297 9.05292 11.7087 8.84125L10.9874 13.1638C10.9486 13.3976 10.828 13.61 10.6472 13.7631C10.4663 13.9163 10.2369 14.0002 9.99994 14C9.94466 13.9998 9.88949 13.9952 9.83494 13.9863C9.70531 13.9647 9.5812 13.9179 9.4697 13.8483C9.35819 13.7788 9.26148 13.688 9.1851 13.5811C9.10871 13.4742 9.05414 13.3532 9.02452 13.2252C8.99489 13.0972 8.99079 12.9646 9.01244 12.835L9.74994 8.4325C8.14447 7.9855 6.62219 7.28092 5.24244 6.34625L2.87494 10.5C2.74233 10.7311 2.52336 10.9 2.2662 10.9696C2.00904 11.0392 1.73476 11.0039 1.50369 10.8713C1.27262 10.7386 1.10369 10.5197 1.03407 10.2625C0.964443 10.0054 0.999828 9.73107 1.13244 9.5L3.63244 5.125C2.75431 4.36635 1.94683 3.52959 1.21994 2.625C1.12928 2.52379 1.06021 2.40516 1.01693 2.27636C0.973651 2.14757 0.957072 2.0113 0.968208 1.87588C0.979343 1.74046 1.01796 1.60873 1.0817 1.48874C1.14544 1.36874 1.23296 1.26299 1.33893 1.17794C1.4449 1.0929 1.56708 1.03034 1.69803 0.994085C1.82898 0.957832 1.96595 0.948645 2.10056 0.967086C2.23518 0.985528 2.36463 1.03121 2.48101 1.10134C2.59738 1.17148 2.69824 1.26459 2.77744 1.375C4.85244 3.9425 8.48244 7 13.9999 7C19.5174 7 23.1474 3.93875 25.2224 1.375C25.3007 1.26233 25.4014 1.16697 25.5181 1.09487C25.6348 1.02276 25.7651 0.97544 25.9009 0.955857C26.0367 0.936273 26.1751 0.944843 26.3074 0.981033C26.4398 1.01722 26.5632 1.08026 26.6702 1.16622C26.7771 1.25218 26.8652 1.35922 26.929 1.48069C26.9928 1.60216 27.0309 1.73546 27.041 1.87229C27.051 2.00912 27.0328 2.14656 26.9875 2.27605C26.9421 2.40555 26.8706 2.52433 26.7774 2.625C26.0505 3.52959 25.2431 4.36635 24.3649 5.125L26.8649 9.5C26.932 9.61405 26.9759 9.74028 26.9938 9.87138C27.0118 10.0025 27.0036 10.1358 26.9696 10.2637C26.9357 10.3916 26.8767 10.5115 26.796 10.6164C26.7154 10.7214 26.6148 10.8093 26.4999 10.875Z" fill="currentColor"/>
</svg>
