<svg width="18" height="19" viewBox="0 0 18 19" fill="none" xmlns="http://www.w3.org/2000/svg">
<path d="M7.49975 17.75C7.49975 17.9489 7.42074 18.1397 7.28009 18.2803C7.13944 18.421 6.94868 18.5 6.74978 18.5H1.49995C1.10214 18.5 0.720621 18.342 0.439325 18.0607C0.15803 17.7794 0 17.3978 0 17V2C0 1.60218 0.15803 1.22064 0.439325 0.93934C0.720621 0.658035 1.10214 0.5 1.49995 0.5H6.74978C6.94868 0.5 7.13944 0.579018 7.28009 0.71967C7.42074 0.860322 7.49975 1.05109 7.49975 1.25C7.49975 1.44891 7.42074 1.63968 7.28009 1.78033C7.13944 1.92098 6.94868 2 6.74978 2H1.49995V17H6.74978C6.94868 17 7.13944 17.079 7.28009 17.2197C7.42074 17.3603 7.49975 17.5511 7.49975 17.75ZM17.78 8.96937L14.0302 5.21937C13.8894 5.07864 13.6986 4.99958 13.4996 4.99958C13.3005 4.99958 13.1097 5.07864 12.969 5.21937C12.8282 5.36011 12.7492 5.55098 12.7492 5.75C12.7492 5.94902 12.8282 6.13989 12.969 6.28063L15.4392 8.75H6.74978C6.55087 8.75 6.36011 8.82902 6.21947 8.96967C6.07882 9.11032 5.9998 9.30109 5.9998 9.5C5.9998 9.69891 6.07882 9.88968 6.21947 10.0303C6.36011 10.171 6.55087 10.25 6.74978 10.25H15.4392L12.969 12.7194C12.8282 12.8601 12.7492 13.051 12.7492 13.25C12.7492 13.449 12.8282 13.6399 12.969 13.7806C13.1097 13.9214 13.3005 14.0004 13.4996 14.0004C13.6986 14.0004 13.8894 13.9214 14.0302 13.7806L17.78 10.0306C17.8498 9.96097 17.9051 9.87825 17.9428 9.7872C17.9806 9.69616 18 9.59856 18 9.5C18 9.40144 17.9806 9.30384 17.9428 9.2128C17.9051 9.12175 17.8498 9.03903 17.78 8.96937Z" fill="currentColor"/>
</svg>
