<svg width="15" height="15" viewBox="0 0 15 15" fill="none" xmlns="http://www.w3.org/2000/svg">
<path d="M13.75 0H1.25C0.918479 0 0.600537 0.131696 0.366116 0.366116C0.131696 0.600537 0 0.918479 0 1.25V13.75C0 14.0815 0.131696 14.3995 0.366116 14.6339C0.600537 14.8683 0.918479 15 1.25 15H13.75C14.0815 15 14.3995 14.8683 14.6339 14.6339C14.8683 14.3995 15 14.0815 15 13.75V1.25C15 0.918479 14.8683 0.600537 14.6339 0.366116C14.3995 0.131696 14.0815 0 13.75 0ZM11.0672 6.06719L6.69219 10.4422C6.63414 10.5003 6.56521 10.5464 6.48934 10.5779C6.41346 10.6093 6.33213 10.6255 6.25 10.6255C6.16787 10.6255 6.08654 10.6093 6.01066 10.5779C5.93479 10.5464 5.86586 10.5003 5.80781 10.4422L3.93281 8.56719C3.81554 8.44991 3.74965 8.29085 3.74965 8.125C3.74965 7.95915 3.81554 7.80009 3.93281 7.68281C4.05009 7.56554 4.20915 7.49965 4.375 7.49965C4.54085 7.49965 4.69991 7.56554 4.81719 7.68281L6.25 9.11641L10.1828 5.18281C10.2409 5.12474 10.3098 5.07868 10.3857 5.04725C10.4616 5.01583 10.5429 4.99965 10.625 4.99965C10.7071 4.99965 10.7884 5.01583 10.8643 5.04725C10.9402 5.07868 11.0091 5.12474 11.0672 5.18281C11.1253 5.24088 11.1713 5.30982 11.2027 5.38569C11.2342 5.46156 11.2503 5.54288 11.2503 5.625C11.2503 5.70712 11.2342 5.78844 11.2027 5.86431C11.1713 5.94018 11.1253 6.00912 11.0672 6.06719Z" fill="currentColor"/>
</svg>
