<svg width="18" height="15" viewBox="0 0 18 15" fill="none" xmlns="http://www.w3.org/2000/svg">
<path d="M0.75 3.75294H3.84375C4.00898 4.39774 4.38428 4.96926 4.91048 5.3774C5.43669 5.78553 6.08387 6.00705 6.75 6.00705C7.41613 6.00705 8.06331 5.78553 8.58952 5.3774C9.11572 4.96926 9.49102 4.39774 9.65625 3.75294H17.25C17.4489 3.75294 17.6397 3.67398 17.7803 3.53344C17.921 3.3929 18 3.20228 18 3.00353C18 2.80477 17.921 2.61415 17.7803 2.47361C17.6397 2.33307 17.4489 2.25411 17.25 2.25411H9.65625C9.49102 1.60931 9.11572 1.03779 8.58952 0.629659C8.06331 0.221528 7.41613 0 6.75 0C6.08387 0 5.43669 0.221528 4.91048 0.629659C4.38428 1.03779 4.00898 1.60931 3.84375 2.25411H0.75C0.551088 2.25411 0.360322 2.33307 0.21967 2.47361C0.0790178 2.61415 0 2.80477 0 3.00353C0 3.20228 0.0790178 3.3929 0.21967 3.53344C0.360322 3.67398 0.551088 3.75294 0.75 3.75294ZM6.75 1.5047C7.04667 1.5047 7.33668 1.59261 7.58335 1.7573C7.83003 1.92199 8.02229 2.15608 8.13582 2.42995C8.24935 2.70383 8.27906 3.00519 8.22118 3.29593C8.1633 3.58668 8.02044 3.85374 7.81066 4.06336C7.60088 4.27297 7.33361 4.41572 7.04264 4.47355C6.75166 4.53138 6.45006 4.5017 6.17597 4.38826C5.90189 4.27482 5.66762 4.08271 5.5028 3.83623C5.33797 3.58975 5.25 3.29997 5.25 3.00353C5.25 2.60601 5.40804 2.22478 5.68934 1.9437C5.97064 1.66261 6.35218 1.5047 6.75 1.5047ZM17.25 11.2471H15.6562C15.491 10.6023 15.1157 10.0307 14.5895 9.62261C14.0633 9.21447 13.4161 8.99295 12.75 8.99295C12.0839 8.99295 11.4367 9.21447 10.9105 9.62261C10.3843 10.0307 10.009 10.6023 9.84375 11.2471H0.75C0.551088 11.2471 0.360322 11.326 0.21967 11.4666C0.0790178 11.6071 0 11.7977 0 11.9965C0 12.1952 0.0790178 12.3858 0.21967 12.5264C0.360322 12.6669 0.551088 12.7459 0.75 12.7459H9.84375C10.009 13.3907 10.3843 13.9622 10.9105 14.3703C11.4367 14.7785 12.0839 15 12.75 15C13.4161 15 14.0633 14.7785 14.5895 14.3703C15.1157 13.9622 15.491 13.3907 15.6562 12.7459H17.25C17.4489 12.7459 17.6397 12.6669 17.7803 12.5264C17.921 12.3858 18 12.1952 18 11.9965C18 11.7977 17.921 11.6071 17.7803 11.4666C17.6397 11.326 17.4489 11.2471 17.25 11.2471ZM12.75 13.4953C12.4533 13.4953 12.1633 13.4074 11.9166 13.2427C11.67 13.078 11.4777 12.8439 11.3642 12.57C11.2506 12.2962 11.2209 11.9948 11.2788 11.7041C11.3367 11.4133 11.4796 11.1463 11.6893 10.9366C11.8991 10.727 12.1664 10.5843 12.4574 10.5264C12.7483 10.4686 13.0499 10.4983 13.324 10.6117C13.5981 10.7252 13.8324 10.9173 13.9972 11.1638C14.162 11.4103 14.25 11.7 14.25 11.9965C14.25 12.394 14.092 12.7752 13.8107 13.0563C13.5294 13.3374 13.1478 13.4953 12.75 13.4953Z" fill="#81DC0D"/>
</svg>
