<svg width="277" height="234" viewBox="0 0 277 234" fill="none" xmlns="http://www.w3.org/2000/svg">
<path d="M255 0H21.25C15.6141 0 10.2091 2.23883 6.22398 6.22398C2.23883 10.2091 0 15.6141 0 21.25V212.5C0 218.136 2.23883 223.541 6.22398 227.526C10.2091 231.511 15.6141 233.75 21.25 233.75H255C260.636 233.75 266.041 231.511 270.026 227.526C274.011 223.541 276.25 218.136 276.25 212.5V21.25C276.25 15.6141 274.011 10.2091 270.026 6.22398C266.041 2.23883 260.636 0 255 0ZM255 21.25V157.715L220.376 123.104C218.402 121.13 216.06 119.564 213.481 118.496C210.903 117.428 208.139 116.878 205.348 116.878C202.557 116.878 199.793 117.428 197.215 118.496C194.636 119.564 192.294 121.13 190.32 123.104L163.758 149.666L105.32 91.2289C101.336 87.2468 95.9327 85.0098 90.2992 85.0098C84.6658 85.0098 79.2629 87.2468 75.2781 91.2289L21.25 145.257V21.25H255ZM21.25 175.312L90.3125 106.25L196.562 212.5H21.25V175.312ZM255 212.5H226.618L178.805 164.688L205.368 138.125L255 187.77V212.5ZM159.375 79.6875C159.375 76.5354 160.31 73.454 162.061 70.8331C163.812 68.2122 166.301 66.1694 169.213 64.9632C172.126 63.7569 175.33 63.4413 178.422 64.0562C181.513 64.6712 184.353 66.1891 186.582 68.418C188.811 70.6469 190.329 73.4867 190.944 76.5782C191.559 79.6698 191.243 82.8743 190.037 85.7865C188.831 88.6987 186.788 91.1878 184.167 92.9391C181.546 94.6903 178.465 95.625 175.312 95.625C171.086 95.625 167.032 93.9459 164.043 90.957C161.054 87.9682 159.375 83.9144 159.375 79.6875Z" fill="white"/>
</svg>
