<svg width="14" height="14" viewBox="0 0 14 14" fill="none" xmlns="http://www.w3.org/2000/svg">
<path d="M7.80769 10.5C7.80769 10.6597 7.76032 10.8159 7.67157 10.9487C7.58282 11.0816 7.45668 11.1851 7.30909 11.2462C7.16151 11.3073 6.99911 11.3233 6.84243 11.2922C6.68575 11.261 6.54183 11.1841 6.42888 11.0711C6.31592 10.9582 6.23899 10.8142 6.20783 10.6576C6.17666 10.5009 6.19266 10.3385 6.25379 10.1909C6.31492 10.0433 6.41845 9.91718 6.55127 9.82843C6.6841 9.73968 6.84026 9.69231 7 9.69231C7.21422 9.69231 7.41965 9.7774 7.57113 9.92887C7.7226 10.0803 7.80769 10.2858 7.80769 10.5ZM7 3.23077C5.51519 3.23077 4.30769 4.31779 4.30769 5.65385V5.92308C4.30769 6.06588 4.36443 6.20284 4.46541 6.30383C4.56639 6.40481 4.70335 6.46154 4.84616 6.46154C4.98897 6.46154 5.12592 6.40481 5.22691 6.30383C5.32789 6.20284 5.38462 6.06588 5.38462 5.92308V5.65385C5.38462 4.91346 6.10952 4.30769 7 4.30769C7.89048 4.30769 8.61539 4.91346 8.61539 5.65385C8.61539 6.39423 7.89048 7 7 7C6.85719 7 6.72023 7.05673 6.61925 7.15771C6.51827 7.25869 6.46154 7.39565 6.46154 7.53846V8.07692C6.46154 8.21973 6.51827 8.35669 6.61925 8.45767C6.72023 8.55865 6.85719 8.61538 7 8.61538C7.14281 8.61538 7.27977 8.55865 7.38075 8.45767C7.48173 8.35669 7.53846 8.21973 7.53846 8.07692V8.02846C8.76616 7.80298 9.69231 6.82365 9.69231 5.65385C9.69231 4.31779 8.48481 3.23077 7 3.23077ZM14 7C14 8.38447 13.5895 9.73785 12.8203 10.889C12.0511 12.0401 10.9579 12.9373 9.67879 13.4672C8.3997 13.997 6.99224 14.1356 5.63437 13.8655C4.2765 13.5954 3.02922 12.9287 2.05026 11.9497C1.07129 10.9708 0.404603 9.7235 0.134506 8.36563C-0.13559 7.00776 0.00303299 5.6003 0.532846 4.32122C1.06266 3.04213 1.95987 1.94888 3.11101 1.17971C4.26216 0.410543 5.61553 0 7 0C8.85592 0.00195988 10.6353 0.740087 11.9476 2.05242C13.2599 3.36475 13.998 5.14409 14 7ZM12.9231 7C12.9231 5.82853 12.5757 4.68336 11.9249 3.70931C11.274 2.73527 10.349 1.97609 9.26667 1.52779C8.18436 1.07949 6.99343 0.96219 5.84447 1.19073C4.6955 1.41928 3.64011 1.98339 2.81175 2.81175C1.9834 3.64011 1.41928 4.6955 1.19074 5.84446C0.962193 6.99343 1.07949 8.18436 1.52779 9.26666C1.9761 10.349 2.73527 11.274 3.70932 11.9249C4.68336 12.5757 5.82853 12.9231 7 12.9231C8.57035 12.9213 10.0759 12.2967 11.1863 11.1863C12.2967 10.0759 12.9213 8.57035 12.9231 7Z" fill="currentColor"/>
</svg>
