<svg width="28" height="26" viewBox="0 0 28 26" fill="none" xmlns="http://www.w3.org/2000/svg">
<path d="M27 23.5H24.7113L17.1775 1.84375C17.0412 1.45136 16.7861 1.11115 16.4476 0.87035C16.1092 0.629548 15.7041 0.500108 15.2887 0.5H12.7113C12.296 0.500017 11.8911 0.629276 11.5526 0.86984C11.2142 1.1104 10.959 1.45035 10.8225 1.8425L3.28875 23.5H1C0.734784 23.5 0.48043 23.6054 0.292893 23.7929C0.105357 23.9804 0 24.2348 0 24.5C0 24.7652 0.105357 25.0196 0.292893 25.2071C0.48043 25.3946 0.734784 25.5 1 25.5H27C27.2652 25.5 27.5196 25.3946 27.7071 25.2071C27.8946 25.0196 28 24.7652 28 24.5C28 24.2348 27.8946 23.9804 27.7071 23.7929C27.5196 23.6054 27.2652 23.5 27 23.5ZM9.92875 10.5H18.0713L20.1588 16.5H7.84125L9.92875 10.5ZM12.7113 2.5H15.2887L17.375 8.5H10.625L12.7113 2.5ZM7.14625 18.5H20.8538L22.5938 23.5H5.40625L7.14625 18.5Z" fill="currentColor"/>
</svg>
