<svg width="40" height="56" viewBox="0 0 40 56" fill="none" xmlns="http://www.w3.org/2000/svg">
<path d="M40 49C40 52.866 31.0457 56 20 56C8.9543 56 0 52.866 0 49C0 45.134 8.9543 42 20 42C31.0457 42 40 45.134 40 49Z" fill="black" fill-opacity="0.15"/>
<path d="M20.8696 0C15.7976 0.00578973 10.9351 2.03577 7.34866 5.64459C3.76225 9.25341 1.74488 14.1464 1.73913 19.25C1.73913 35.7219 19.1304 48.1622 19.8717 48.6828C20.1642 48.8889 20.5125 48.9995 20.8696 48.9995C21.2266 48.9995 21.575 48.8889 21.8674 48.6828C22.6087 48.1622 40 35.7219 40 19.25C39.9942 14.1464 37.9769 9.25341 34.3905 5.64459C30.8041 2.03577 25.9415 0.00578973 20.8696 0ZM20.8696 12.25C22.2454 12.25 23.5904 12.6605 24.7344 13.4297C25.8784 14.1989 26.77 15.2921 27.2966 16.5712C27.8231 17.8503 27.9608 19.2578 27.6924 20.6156C27.424 21.9735 26.7615 23.2208 25.7886 24.1997C24.8157 25.1787 23.5761 25.8454 22.2267 26.1155C20.8773 26.3856 19.4786 26.247 18.2074 25.7172C16.9363 25.1873 15.8498 24.2901 15.0854 23.139C14.321 21.9878 13.913 20.6345 13.913 19.25C13.913 17.3935 14.646 15.613 15.9506 14.3003C17.2552 12.9875 19.0246 12.25 20.8696 12.25Z" fill="#FF3D3D"/>
</svg>
