<svg width="20" height="19" viewBox="0 0 20 19" fill="none" xmlns="http://www.w3.org/2000/svg">
<path d="M19.7113 2.15853C19.6214 2.08853 19.5168 2.03991 19.4054 2.01635C19.294 1.9928 19.1786 1.99494 19.0681 2.0226L13.3372 3.45509L7.58571 0.578854C7.42545 0.498923 7.24189 0.478971 7.06821 0.522605L1.06824 2.0226C0.90599 2.06315 0.761948 2.15678 0.659011 2.28859C0.556073 2.42041 0.500147 2.58285 0.500122 2.75009V16.25C0.500139 16.364 0.526127 16.4764 0.576112 16.5789C0.626097 16.6813 0.698765 16.7709 0.788595 16.8411C0.878426 16.9112 0.983056 16.9599 1.09454 16.9836C1.20602 17.0072 1.32143 17.0051 1.43199 16.9775L7.1629 15.545L12.9144 18.4213C13.0188 18.4727 13.1336 18.4997 13.25 18.5C13.3114 18.5 13.3724 18.4924 13.4319 18.4775L19.4319 16.9775C19.5941 16.937 19.7382 16.8433 19.8411 16.7115C19.9441 16.5797 20 16.4173 20 16.25V2.75009C20 2.63602 19.974 2.52345 19.924 2.42094C19.874 2.31843 19.8012 2.22869 19.7113 2.15853ZM8.00008 2.46322L12.5001 4.71321V16.5369L8.00008 14.2869V2.46322ZM2.00011 3.33603L6.50009 2.21103V14.1641L2.00011 15.2891V3.33603ZM18.5 15.6641L14 16.7891V4.83602L18.5 3.71102V15.6641Z" fill="currentColor"/>
</svg>
