<svg width="18" height="5" viewBox="0 0 18 5" fill="none" xmlns="http://www.w3.org/2000/svg">
<path d="M11.3333 2.49935C11.3333 2.96084 11.1965 3.41196 10.9401 3.79568C10.6837 4.17939 10.3193 4.47846 9.89293 4.65507C9.46657 4.83167 8.99741 4.87788 8.54479 4.78785C8.09217 4.69782 7.67641 4.47559 7.35009 4.14927C7.02376 3.82294 6.80153 3.40718 6.7115 2.95456C6.62147 2.50194 6.66768 2.03278 6.84428 1.60642C7.02089 1.18006 7.31996 0.815643 7.70367 0.559253C8.08738 0.302863 8.53851 0.166016 9 0.166016C9.61884 0.166016 10.2123 0.411848 10.6499 0.849433C11.0875 1.28702 11.3333 1.88051 11.3333 2.49935ZM2.33333 0.166016C1.87184 0.166016 1.42072 0.302863 1.037 0.559253C0.653289 0.815643 0.35422 1.18006 0.177615 1.60642C0.00101099 2.03278 -0.0451968 2.50194 0.0448354 2.95456C0.134868 3.40718 0.357096 3.82294 0.683419 4.14927C1.00974 4.47559 1.4255 4.69782 1.87812 4.78785C2.33075 4.87788 2.7999 4.83167 3.22626 4.65507C3.65262 4.47846 4.01704 4.17939 4.27343 3.79568C4.52982 3.41196 4.66667 2.96084 4.66667 2.49935C4.66667 1.88051 4.42083 1.28702 3.98325 0.849433C3.54566 0.411848 2.95217 0.166016 2.33333 0.166016ZM15.6667 0.166016C15.2052 0.166016 14.7541 0.302863 14.3703 0.559253C13.9866 0.815643 13.6876 1.18006 13.5109 1.60642C13.3343 2.03278 13.2881 2.50194 13.3782 2.95456C13.4682 3.40718 13.6904 3.82294 14.0168 4.14927C14.3431 4.47559 14.7588 4.69782 15.2115 4.78785C15.6641 4.87788 16.1332 4.83167 16.5596 4.65507C16.986 4.47846 17.3504 4.17939 17.6068 3.79568C17.8632 3.41196 18 2.96084 18 2.49935C18 2.19293 17.9396 1.88951 17.8224 1.60642C17.7051 1.32333 17.5333 1.0661 17.3166 0.849433C17.0999 0.632763 16.8427 0.460891 16.5596 0.34363C16.2765 0.226369 15.9731 0.166016 15.6667 0.166016Z" fill="currentColor"/>
</svg>
