<svg width="20" height="20" viewBox="0 0 20 20" fill="none" xmlns="http://www.w3.org/2000/svg">
<path d="M19.5 10C19.5 10.3023 19.3799 10.5923 19.1661 10.8061C18.9523 11.0199 18.6623 11.14 18.36 11.14H11.14V18.36C11.14 18.6623 11.0199 18.9523 10.8061 19.1661C10.5923 19.3799 10.3023 19.5 10 19.5C9.69765 19.5 9.40769 19.3799 9.1939 19.1661C8.98011 18.9523 8.86 18.6623 8.86 18.36V11.14H1.64C1.33765 11.14 1.04769 11.0199 0.833898 10.8061C0.620107 10.5923 0.5 10.3023 0.5 10C0.5 9.69765 0.620107 9.40769 0.833898 9.1939C1.04769 8.98011 1.33765 8.86 1.64 8.86H8.86V1.64C8.86 1.33765 8.98011 1.04769 9.1939 0.833898C9.40769 0.620107 9.69765 0.5 10 0.5C10.3023 0.5 10.5923 0.620107 10.8061 0.833898C11.0199 1.04769 11.14 1.33765 11.14 1.64V8.86H18.36C18.6623 8.86 18.9523 8.98011 19.1661 9.1939C19.3799 9.40769 19.5 9.69765 19.5 10Z" fill="#656565"/>
</svg>
