<svg width="26" height="26" viewBox="0 0 26 26" fill="none" xmlns="http://www.w3.org/2000/svg">
<path d="M25.8514 23.9788C23.9497 20.691 21.019 18.3335 17.5988 17.2159C19.2906 16.2088 20.605 14.6741 21.3402 12.8477C22.0754 11.0213 22.1907 9.00399 21.6684 7.10567C21.1461 5.20736 20.0151 3.53296 18.4492 2.33963C16.8832 1.14629 14.9687 0.5 12.9999 0.5C11.031 0.5 9.11663 1.14629 7.55064 2.33963C5.98465 3.53296 4.85368 5.20736 4.33141 7.10567C3.80914 9.00399 3.92444 11.0213 4.65962 12.8477C5.3948 14.6741 6.7092 16.2088 8.40097 17.2159C4.9808 18.3322 2.05012 20.6897 0.148368 23.9788C0.0786268 24.0925 0.0323682 24.219 0.0123212 24.3509C-0.00772588 24.4828 -0.00115529 24.6174 0.0316452 24.7467C0.0644457 24.876 0.122812 24.9974 0.2033 25.1038C0.283788 25.2102 0.384767 25.2993 0.50028 25.3661C0.615793 25.4328 0.743499 25.4757 0.875865 25.4923C1.00823 25.5088 1.14257 25.4987 1.27097 25.4625C1.39936 25.4263 1.51921 25.3648 1.62343 25.2815C1.72766 25.1983 1.81415 25.095 1.8778 24.9777C4.23034 20.912 8.38848 18.4846 12.9999 18.4846C17.6113 18.4846 21.7695 20.912 24.122 24.9777C24.1856 25.095 24.2721 25.1983 24.3764 25.2815C24.4806 25.3648 24.6004 25.4263 24.7288 25.4625C24.8572 25.4987 24.9916 25.5088 25.1239 25.4923C25.2563 25.4757 25.384 25.4328 25.4995 25.3661C25.615 25.2993 25.716 25.2102 25.7965 25.1038C25.877 24.9974 25.9354 24.876 25.9682 24.7467C26.0009 24.6174 26.0075 24.4828 25.9875 24.3509C25.9674 24.219 25.9212 24.0925 25.8514 23.9788ZM6.00723 9.49397C6.00723 8.11095 6.41734 6.75899 7.1857 5.60906C7.95407 4.45912 9.04618 3.56285 10.3239 3.03359C11.6017 2.50433 13.0077 2.36585 14.3641 2.63567C15.7205 2.90548 16.9665 3.57147 17.9445 4.54941C18.9224 5.52735 19.5884 6.77333 19.8582 8.12977C20.128 9.48622 19.9895 10.8922 19.4603 12.17C18.931 13.4477 18.0348 14.5398 16.8848 15.3082C15.7349 16.0765 14.3829 16.4866 12.9999 16.4866C11.1459 16.4847 9.36847 15.7473 8.05752 14.4363C6.74657 13.1254 6.00921 11.3479 6.00723 9.49397Z" fill="currentColor"/>
</svg>
