<svg width="26" height="26" viewBox="0 0 26 26" fill="none" xmlns="http://www.w3.org/2000/svg">
<path d="M24.8689 5.90938C24.8105 5.76524 24.7181 5.63741 24.5996 5.53682C24.481 5.43624 24.3398 5.36592 24.1881 5.33189C24.0364 5.29786 23.8787 5.30114 23.7285 5.34144C23.5783 5.38175 23.4402 5.45787 23.3259 5.56329L18.483 10.0324L16.4125 9.5878L15.9678 7.51726L20.437 2.67439C20.5424 2.5601 20.6185 2.42195 20.6588 2.27177C20.6991 2.1216 20.7024 1.9639 20.6684 1.81218C20.6343 1.66047 20.564 1.51927 20.4634 1.4007C20.3629 1.28213 20.235 1.18972 20.0909 1.1314C18.7773 0.60005 17.3534 0.399425 15.9442 0.547157C14.535 0.694889 13.1836 1.18646 12.0088 1.97867C10.834 2.77088 9.87177 3.83948 9.20661 5.0906C8.54145 6.34171 8.19373 7.73704 8.19401 9.15398C8.19246 10.3505 8.43792 11.5344 8.91504 12.6317L1.67957 18.8878C1.66155 18.9022 1.64472 18.919 1.6279 18.9347C0.906656 19.6559 0.501465 20.6341 0.501465 21.6541C0.501465 22.1592 0.600942 22.6593 0.794216 23.1259C0.98749 23.5925 1.27078 24.0164 1.6279 24.3736C1.98502 24.7307 2.40899 25.014 2.8756 25.2073C3.3422 25.4005 3.84231 25.5 4.34736 25.5C5.36735 25.5 6.34557 25.0948 7.06681 24.3736C7.08244 24.3579 7.09926 24.3399 7.11368 24.3231L13.3686 17.0852C14.6861 17.6636 16.1272 17.9042 17.5612 17.7853C18.9952 17.6665 20.3769 17.1918 21.5813 16.4043C22.7856 15.6169 23.7746 14.5415 24.4585 13.2755C25.1425 12.0095 25.5 10.5929 25.4986 9.15398C25.5004 8.04191 25.2866 6.94002 24.8689 5.90938ZM16.8463 15.8835C15.7084 15.882 14.5893 15.5926 13.5933 15.0423C13.4003 14.9357 13.1766 14.8987 12.9595 14.9374C12.7425 14.9761 12.5454 15.0883 12.4012 15.255L5.68365 23.0349C5.32014 23.3802 4.83609 23.5699 4.33472 23.5635C3.83334 23.5571 3.35431 23.3551 2.99976 23.0005C2.64521 22.646 2.44318 22.1669 2.43676 21.6655C2.43034 21.1642 2.62004 20.6801 2.9654 20.3166L10.7392 13.6003C10.9063 13.456 11.0186 13.2587 11.0573 13.0414C11.0961 12.8241 11.0588 12.6001 10.9519 12.407C10.3391 11.2986 10.0515 10.0397 10.1222 8.77518C10.1929 7.51061 10.619 6.29167 11.3516 5.25848C12.0841 4.22529 13.0934 3.4198 14.2633 2.93462C15.4332 2.44944 16.7163 2.30425 17.9651 2.51577L14.2158 6.57873C14.1114 6.6919 14.0358 6.82846 13.9952 6.97693C13.9547 7.1254 13.9503 7.28145 13.9826 7.43194L14.6628 10.596C14.7017 10.777 14.792 10.9429 14.9229 11.0738C15.0538 11.2047 15.2197 11.295 15.4006 11.3339L18.5671 12.014C18.7176 12.0463 18.8737 12.042 19.0221 12.0014C19.1706 11.9609 19.3072 11.8852 19.4203 11.7809L23.4833 8.03159C23.6453 8.99657 23.5951 9.98525 23.3363 10.9289C23.0774 11.8725 22.6161 12.7484 21.9845 13.4957C21.3528 14.243 20.566 14.8437 19.6786 15.256C18.7913 15.6684 17.8248 15.8825 16.8463 15.8835Z" fill="currentColor"/>
</svg>
