<svg width="34" height="26" viewBox="0 0 34 26" fill="none" xmlns="http://www.w3.org/2000/svg">
<path d="M32.7419 15.0209C32.6286 15.1103 32.4997 15.1753 32.3625 15.2123C32.2253 15.2493 32.0826 15.2574 31.9424 15.2364C31.8022 15.2153 31.6673 15.1654 31.5455 15.0895C31.4236 15.0136 31.3172 14.9132 31.2322 14.794C30.5823 13.8748 29.7363 13.129 28.7624 12.6167C27.7885 12.1043 26.7139 11.8397 25.625 11.8442C25.413 11.8441 25.2056 11.7783 25.029 11.655C24.8523 11.5316 24.7141 11.3562 24.6316 11.1507C24.5756 11.0111 24.5468 10.8611 24.5468 10.7096C24.5468 10.5581 24.5756 10.4082 24.6316 10.2686C24.7141 10.063 24.8523 9.8876 25.029 9.76425C25.2056 9.6409 25.413 9.5751 25.625 9.57508C26.23 9.57503 26.8229 9.39645 27.3363 9.05964C27.8497 8.72282 28.2631 8.24127 28.5294 7.66968C28.7957 7.0981 28.9044 6.45938 28.843 5.82609C28.7816 5.1928 28.5526 4.59031 28.1821 4.08707C27.8116 3.58383 27.3143 3.2 26.7469 2.97918C26.1794 2.75837 25.5645 2.70942 24.9719 2.83789C24.3793 2.96636 23.8328 3.2671 23.3946 3.70596C22.9563 4.14482 22.6438 4.7042 22.4925 5.32056C22.4571 5.4649 22.3951 5.60048 22.3098 5.71957C22.2246 5.83867 22.118 5.93894 21.9959 6.01466C21.8739 6.09038 21.7389 6.14007 21.5986 6.16089C21.4583 6.18171 21.3155 6.17326 21.1783 6.13601C21.0412 6.09877 20.9123 6.03345 20.7991 5.94381C20.6859 5.85416 20.5906 5.74194 20.5186 5.61354C20.4467 5.48514 20.3994 5.34309 20.3797 5.19549C20.3599 5.04788 20.3679 4.89763 20.4033 4.75329C20.6132 3.89858 21.0099 3.10722 21.5617 2.44217C22.1134 1.77712 22.8051 1.25675 23.5817 0.922455C24.3582 0.58816 25.1982 0.449171 26.0348 0.516546C26.8714 0.583922 27.6815 0.855802 28.4007 1.31055C29.1198 1.76531 29.7282 2.39038 30.1773 3.13604C30.6265 3.88169 30.904 4.72735 30.9879 5.60573C31.0718 6.4841 30.9596 7.37094 30.6604 8.19569C30.3612 9.02044 29.8831 9.76034 29.2643 10.3565C30.7306 11.0245 32.0052 12.0844 32.9616 13.4311C33.0465 13.5506 33.1082 13.6865 33.1432 13.8312C33.1781 13.9758 33.1856 14.1263 33.1652 14.2739C33.1448 14.4216 33.0969 14.5636 33.0243 14.6918C32.9516 14.8199 32.8556 14.9318 32.7419 15.0209ZM25.4794 23.7568C25.5575 23.8859 25.6099 24.0303 25.6335 24.1813C25.6571 24.3323 25.6514 24.4868 25.6168 24.6354C25.5822 24.784 25.5194 24.9237 25.4321 25.0461C25.3449 25.1686 25.235 25.2711 25.1091 25.3477C24.9832 25.4243 24.8438 25.4733 24.6995 25.4917C24.5551 25.5102 24.4087 25.4977 24.269 25.4551C24.1293 25.4124 23.9993 25.3405 23.8867 25.2436C23.7742 25.1468 23.6814 25.0269 23.614 24.8913C22.9347 23.6812 21.9673 22.6783 20.8072 21.9815C19.6471 21.2848 18.3343 20.9184 16.9985 20.9184C15.6627 20.9184 14.35 21.2848 13.1899 21.9815C12.0298 22.6783 11.0624 23.6812 10.3831 24.8913C10.3157 25.0269 10.2229 25.1468 10.1104 25.2436C9.99778 25.3405 9.86775 25.4124 9.72808 25.4551C9.58841 25.4977 9.44198 25.5102 9.29761 25.4917C9.15324 25.4733 9.01391 25.4243 8.888 25.3477C8.76209 25.2711 8.65221 25.1686 8.56496 25.0461C8.4777 24.9237 8.41489 24.784 8.38029 24.6354C8.34569 24.4868 8.34002 24.3323 8.36362 24.1813C8.38723 24.0303 8.43961 23.8859 8.51763 23.7568C9.56305 21.8669 11.1571 20.3797 13.0654 19.5136C11.9916 18.6486 11.2024 17.4513 10.8088 16.0899C10.4152 14.7286 10.4369 13.2717 10.8709 11.924C11.305 10.5763 12.1295 9.40565 13.2286 8.57651C14.3277 7.74737 15.6461 7.30146 16.9985 7.30146C18.351 7.30146 19.6694 7.74737 20.7685 8.57651C21.8676 9.40565 22.6921 10.5763 23.1261 11.924C23.5602 13.2717 23.5819 14.7286 23.1883 16.0899C22.7947 17.4513 22.0055 18.6486 20.9317 19.5136C22.84 20.3797 24.434 21.8669 25.4794 23.7568ZM16.9985 18.6514C17.8516 18.6514 18.6855 18.3852 19.3948 17.8866C20.1042 17.3879 20.657 16.6791 20.9835 15.8499C21.3099 15.0207 21.3953 14.1082 21.2289 13.2279C21.0625 12.3476 20.6517 11.5389 20.0485 10.9043C19.4452 10.2696 18.6767 9.83739 17.84 9.66228C17.0033 9.48718 16.1361 9.57705 15.3479 9.92053C14.5598 10.264 13.8862 10.8457 13.4122 11.592C12.9383 12.3383 12.6853 13.2157 12.6853 14.1132C12.6853 15.3168 13.1397 16.4711 13.9486 17.3222C14.7575 18.1733 15.8546 18.6514 16.9985 18.6514ZM9.45037 10.7096C9.45037 10.4087 9.33677 10.1201 9.13454 9.90738C8.93232 9.69461 8.65805 9.57508 8.37206 9.57508C7.76703 9.57503 7.17415 9.39645 6.66074 9.05964C6.14734 8.72282 5.734 8.24127 5.46768 7.66968C5.20135 7.0981 5.09272 6.45938 5.15412 5.82609C5.21551 5.1928 5.44447 4.59031 5.815 4.08707C6.18552 3.58383 6.68275 3.2 7.25022 2.97918C7.81768 2.75837 8.43262 2.70942 9.0252 2.83789C9.61778 2.96636 10.1642 3.2671 10.6025 3.70596C11.0408 4.14482 11.3533 4.7042 11.5046 5.32056C11.576 5.61206 11.7547 5.86173 12.0011 6.01466C12.2476 6.16759 12.5417 6.21124 12.8187 6.13601C13.0958 6.06079 13.3331 5.87285 13.4784 5.61354C13.6238 5.35423 13.6653 5.04479 13.5938 4.75329C13.3838 3.89858 12.9872 3.10722 12.4354 2.44217C11.8836 1.77712 11.192 1.25675 10.4154 0.922455C9.63884 0.58816 8.79884 0.449171 7.96225 0.516546C7.12565 0.583922 6.31555 0.855802 5.59639 1.31055C4.87724 1.76531 4.26889 2.39038 3.81974 3.13604C3.37059 3.88169 3.09304 4.72735 3.00918 5.60573C2.92532 6.4841 3.03746 7.37094 3.33669 8.19569C3.63591 9.02044 4.11395 9.76034 4.73277 10.3565C3.268 11.0251 1.99482 12.085 1.03956 13.4311C0.867787 13.6718 0.793938 13.9745 0.834256 14.2725C0.874574 14.5705 1.02576 14.8394 1.25455 15.0202C1.48333 15.2009 1.77099 15.2786 2.05422 15.2362C2.33746 15.1937 2.59308 15.0347 2.76485 14.794C3.41479 13.8748 4.26076 13.129 5.23466 12.6167C6.20857 12.1043 7.28321 11.8397 8.37206 11.8442C8.65805 11.8442 8.93232 11.7246 9.13454 11.5119C9.33677 11.2991 9.45037 11.0105 9.45037 10.7096Z" fill="currentColor"/>
</svg>
