<svg width="8" height="8" viewBox="0 0 8 8" fill="none" xmlns="http://www.w3.org/2000/svg">
<path d="M7.81059 0.189408C7.93187 0.310684 8 0.475169 8 0.646679C8 0.818189 7.93187 0.982674 7.81059 1.10395L4.91454 4L7.81059 6.89605C7.93187 7.01733 8 7.18181 8 7.35332C8 7.52483 7.93187 7.68932 7.81059 7.81059C7.68932 7.93187 7.52483 8 7.35332 8C7.18181 8 7.01733 7.93187 6.89605 7.81059L4 4.91454L1.10395 7.81059C0.982674 7.93187 0.818189 8 0.646679 8C0.475169 8 0.310684 7.93187 0.189408 7.81059C0.0681321 7.68932 0 7.52483 0 7.35332C0 7.18181 0.0681321 7.01733 0.189408 6.89605L3.08546 4L0.189408 1.10395C0.0681321 0.982674 0 0.818189 0 0.646679C0 0.475169 0.0681321 0.310684 0.189408 0.189408C0.310684 0.0681319 0.475169 7.2681e-08 0.646679 7.2681e-08C0.818189 7.2681e-08 0.982674 0.0681319 1.10395 0.189408L4 3.08546L6.89605 0.189408C7.01733 0.0681319 7.18181 0 7.35332 0C7.52483 0 7.68932 0.0681319 7.81059 0.189408Z" fill="currentColor"/>
</svg>
